<?xml version="1.0" standalone="no"?>
<!DOCTYPE svg PUBLIC "-//W3C//DTD SVG 20010904//EN"
 "http://www.w3.org/TR/2001/REC-SVG-20010904/DTD/svg10.dtd">
<svg version="1.0" xmlns="http://www.w3.org/2000/svg"
 width="260.000000pt" height="260.000000pt" viewBox="0 0 260.000000 260.000000"
 preserveAspectRatio="xMidYMid meet">
<metadata>
Created by potrace 1.11, written by Peter Selinger 2001-2013
</metadata>
<g transform="translate(0.000000,260.000000) scale(0.100000,-0.100000)"
fill="#000000" stroke="none">
<path d="M1710 2489 c-180 -103 -429 -489 -500 -776 l-10 -42 -56 30 c-31 16
-65 29 -76 29 -10 0 -98 41 -195 91 l-175 92 -71 -7 c-72 -7 -157 -37 -157
-55 0 -14 1 -14 39 5 18 9 66 20 106 25 l74 9 158 -78 158 -79 -41 -7 c-57
-10 -136 -58 -178 -109 -40 -49 -106 -218 -106 -272 0 -43 17 -55 134 -90 100
-31 185 -34 242 -10 21 8 38 14 39 13 31 -48 55 -73 92 -95 45 -26 49 -27 265
-31 194 -4 218 -3 218 11 0 9 -20 25 -49 38 l-49 23 21 28 c12 16 22 48 25 81
7 85 -29 140 -132 202 -14 8 -4 19 61 62 275 184 501 473 427 547 -20 20 -74
20 -120 1 -34 -14 -36 -14 -29 3 20 47 46 140 55 197 13 81 1 142 -35 173 -35
30 -70 28 -135 -9z m127 -15 c25 -25 25 -29 20 -117 -3 -66 -13 -117 -36 -181
-17 -50 -30 -91 -28 -92 1 -2 29 7 62 18 105 37 137 11 100 -79 -48 -114 -255
-323 -438 -442 -67 -43 -68 -44 -160 -45 l-93 -1 -22 57 c-27 67 -24 89 20
218 97 276 312 585 460 659 74 38 82 38 115 5z m-777 -897 c37 -19 54 -60 40
-101 -13 -41 -54 -81 -71 -71 -8 5 -10 4 -5 -3 4 -8 -3 -16 -19 -22 -39 -15
-76 -15 -126 -1 l-47 13 15 56 c28 110 130 171 213 129z"/>
<path d="M1150 888 c-9 -46 -16 -56 -49 -75 -54 -31 -101 -72 -101 -89 0 -12
64 -14 414 -14 l414 0 6 23 c9 34 7 101 -5 157 l-11 50 -328 0 -329 0 -11 -52z"/>
<path d="M1318 522 c-192 -1 -348 -6 -348 -10 0 -23 77 -94 135 -123 36 -19
65 -39 65 -45 0 -16 -52 -91 -124 -178 -37 -44 -65 -81 -63 -82 2 -2 73 33
158 77 153 81 204 116 215 151 4 13 16 18 42 19 106 1 257 69 314 141 43 55
56 54 -394 50z"/>
</g>
</svg>
