<?xml version="1.0" standalone="no"?>
<!DOCTYPE svg PUBLIC "-//W3C//DTD SVG 20010904//EN"
 "http://www.w3.org/TR/2001/REC-SVG-20010904/DTD/svg10.dtd">
<svg version="1.0" xmlns="http://www.w3.org/2000/svg"
 width="512.000000pt" height="512.000000pt" viewBox="0 0 512.000000 512.000000"
 preserveAspectRatio="xMidYMid meet">
<metadata>
Created by potrace 1.11, written by Peter Selinger 2001-2013
</metadata>
<g transform="translate(0.000000,512.000000) scale(0.100000,-0.100000)"
fill="#000000" stroke="none">
<path d="M2290 5029 c-101 -12 -278 -45 -370 -70 -121 -33 -331 -108 -387
-138 -10 -6 -47 -24 -83 -42 -173 -84 -347 -198 -508 -333 -34 -28 -229 -224
-267 -267 -111 -129 -239 -320 -326 -491 -319 -626 -357 -1367 -104 -2023 196
-508 556 -941 1016 -1221 401 -244 843 -367 1314 -363 526 4 1015 162 1431
461 130 94 177 133 289 243 408 400 657 906 729 1477 18 144 18 450 0 593 -27
216 -96 486 -163 640 -75 171 -130 278 -189 370 -42 66 -125 190 -132 195 -3
3 -21 25 -40 50 -94 123 -280 307 -415 411 -130 100 -264 184 -400 251 -44 21
-88 43 -98 49 -62 34 -281 110 -413 143 -215 55 -324 68 -574 71 -129 2 -269
-1 -310 -6z m667 -430 c215 -41 491 -148 686 -266 410 -246 729 -647 884
-1111 25 -74 56 -184 69 -246 23 -107 24 -124 20 -441 -2 -292 -5 -340 -24
-415 -20 -84 -89 -306 -100 -325 -4 -5 -7 -15 -8 -21 -1 -7 -29 -66 -62 -132
-255 -512 -673 -875 -1212 -1052 -250 -83 -268 -85 -650 -85 -382 0 -399 2
-651 85 -627 206 -1105 682 -1316 1309 -82 244 -92 312 -93 652 -1 344 9 414
90 661 176 533 549 963 1049 1208 146 72 348 145 454 166 12 2 54 10 92 18 50
10 154 14 367 15 262 1 310 -1 405 -20z"/>
<path d="M1137 3583 c-2 -5 -3 -105 -3 -223 l1 -215 87 -3 86 -3 -1 -657 c0
-660 -5 -782 -29 -821 -19 -30 -61 -44 -123 -39 -34 3 -55 1 -58 -6 -2 -6 -3
-108 -3 -226 l1 -215 75 -12 c76 -11 350 -11 405 1 79 17 135 38 190 71 137
82 233 238 250 405 12 125 14 200 14 848 l1 652 80 0 80 0 0 225 0 225 -524 0
c-289 0 -526 -3 -529 -7z"/>
<path d="M2414 3368 l1 -223 55 -1 c30 -1 63 -2 73 -3 16 -1 17 -31 17 -486
l0 -485 -37 -1 c-21 0 -54 -1 -73 -1 l-36 -1 0 -224 -1 -225 631 5 c347 3 651
8 676 11 25 3 59 8 75 11 17 2 48 7 70 11 63 10 193 60 267 104 130 78 247
211 317 361 33 72 51 124 65 189 3 14 9 36 12 50 10 42 12 285 3 336 -5 27
-12 61 -14 76 -11 58 -68 198 -110 271 -129 220 -370 377 -640 416 -38 6 -88
13 -110 17 -22 4 -310 9 -641 11 l-600 5 0 -224z m1076 -244 c53 -9 123 -49
160 -90 34 -40 73 -118 84 -169 3 -16 8 -43 12 -60 11 -58 14 -240 3 -305 -11
-72 -45 -164 -79 -213 -48 -71 -139 -107 -287 -114 l-103 -6 0 488 0 488 88
-6 c48 -4 103 -9 122 -13z"/>
</g>
</svg>
