<?xml version="1.0" standalone="no"?>
<!DOCTYPE svg PUBLIC "-//W3C//DTD SVG 20010904//EN"
 "http://www.w3.org/TR/2001/REC-SVG-20010904/DTD/svg10.dtd">
<svg version="1.0" xmlns="http://www.w3.org/2000/svg"
 width="512.000000pt" height="512.000000pt" viewBox="0 0 512.000000 512.000000"
 preserveAspectRatio="xMidYMid meet">
<metadata>
Created by potrace 1.11, written by Peter Selinger 2001-2013
</metadata>
<g transform="translate(0.000000,512.000000) scale(0.100000,-0.100000)"
fill="#000000" stroke="none">
<path d="M2314 5030 c-470 -47 -940 -240 -1309 -537 -472 -380 -781 -908 -892
-1523 -24 -133 -27 -168 -27 -410 0 -242 3 -278 27 -410 200 -1112 1059 -1925
2173 -2055 799 -93 1641 237 2151 843 26 31 53 63 60 70 6 7 39 49 71 95 205
283 353 620 422 956 39 193 49 315 45 546 -4 240 -20 367 -74 576 -260 1004
-1106 1733 -2146 1848 -100 11 -393 11 -501 1z m461 -301 c182 -20 411 -75
561 -134 102 -40 324 -147 324 -157 0 -4 5 -8 11 -8 17 0 155 -95 259 -179
292 -233 510 -531 656 -894 174 -433 199 -949 68 -1397 -43 -147 -120 -341
-155 -391 -10 -14 -16 -28 -13 -31 2 -3 -2 -11 -11 -18 -8 -7 -15 -17 -15 -23
0 -6 -38 -67 -84 -136 -256 -384 -589 -654 -1016 -826 -582 -234 -1245 -199
-1807 95 -404 212 -722 531 -929 935 -257 502 -311 1049 -157 1593 235 833
950 1449 1813 1561 47 6 96 13 110 14 53 7 309 4 385 -4z"/>
<path d="M1249 3528 c0 -7 -1 -98 -2 -203 l-1 -190 77 -3 c51 -2 77 -7 78 -15
0 -7 1 -285 1 -618 1 -638 -2 -688 -44 -726 -15 -13 -36 -18 -84 -18 l-64 0 0
-207 c0 -115 3 -208 8 -209 4 0 18 -3 32 -5 72 -13 330 -12 398 1 174 33 294
131 361 291 48 113 49 127 50 912 l1 592 70 0 c39 0 71 3 71 8 1 4 2 96 3 205
l1 197 -477 0 c-375 0 -478 -3 -479 -12z"/>
<path d="M2409 3518 c-1 -25 -1 -341 0 -370 1 -15 11 -18 66 -18 l65 0 0 -440
0 -440 -22 -1 c-13 -1 -40 -1 -60 0 -27 1 -40 -4 -45 -16 -7 -14 -9 -282 -4
-377 1 -17 21 -18 584 -13 320 3 598 8 617 11 19 3 51 8 70 12 19 3 46 8 60
10 43 8 123 36 171 60 198 99 337 276 400 509 30 110 33 336 5 445 -87 349
-344 577 -706 626 -25 3 -54 9 -65 11 -11 3 -271 8 -577 10 l-558 5 -1 -24z
m1011 -413 c140 -42 213 -203 206 -450 -4 -119 -8 -144 -35 -214 -51 -136
-132 -184 -318 -190 l-73 -2 0 442 0 442 83 -6 c45 -3 107 -13 137 -22z"/>
</g>
</svg>
