<?xml version="1.0" standalone="no"?>
<!DOCTYPE svg PUBLIC "-//W3C//DTD SVG 20010904//EN"
 "http://www.w3.org/TR/2001/REC-SVG-20010904/DTD/svg10.dtd">
<svg version="1.0" xmlns="http://www.w3.org/2000/svg"
 width="260.000000pt" height="260.000000pt" viewBox="0 0 260.000000 260.000000"
 preserveAspectRatio="xMidYMid meet">
<metadata>
Created by potrace 1.11, written by Peter Selinger 2001-2013
</metadata>
<g transform="translate(0.000000,260.000000) scale(0.100000,-0.100000)"
fill="#000000" stroke="none">
<path d="M0 1300 l0 -1300 1300 0 1300 0 0 1300 0 1300 -1300 0 -1300 0 0
-1300z m1845 1198 c36 -31 48 -92 35 -173 -9 -57 -35 -150 -55 -197 -7 -17 -5
-17 29 -3 46 19 100 19 120 -1 74 -74 -152 -363 -427 -547 -65 -43 -75 -54
-61 -62 103 -62 139 -117 132 -202 -3 -33 -13 -65 -25 -81 l-21 -28 49 -23
c27 -12 49 -26 49 -31 0 -6 -88 -10 -222 -10 -218 0 -222 0 -264 25 -35 20
-58 45 -89 93 -1 1 -18 -5 -38 -13 -59 -24 -154 -19 -261 15 -51 17 -99 37
-106 45 -30 36 35 244 100 317 43 50 116 93 174 104 l40 7 -157 79 -158 78
-74 -9 c-40 -5 -88 -16 -106 -25 -38 -19 -39 -19 -39 -5 0 18 85 48 157 55
l71 7 175 -92 c97 -50 185 -91 195 -91 11 0 45 -13 76 -29 l56 -30 10 42 c71
287 320 673 500 776 65 37 100 39 135 9z m-20 -1585 c10 -29 18 -139 11 -167
l-6 -26 -415 0 c-243 0 -415 4 -415 9 0 12 53 57 101 84 27 15 40 31 44 52 15
71 -19 65 345 65 302 0 328 -1 335 -17z m-109 -436 c-60 -79 -209 -146 -323
-147 -22 0 -33 -6 -37 -18 -4 -10 -19 -30 -34 -44 -29 -28 -333 -191 -340
-183 -3 2 13 24 34 47 76 83 154 192 154 216 0 5 -19 17 -42 28 -57 26 -111
66 -137 103 l-22 31 386 0 386 0 -25 -33z"/>
<path d="M1722 2469 c-148 -74 -363 -383 -460 -659 -44 -129 -47 -151 -20
-218 l22 -57 93 1 c92 1 93 2 160 45 183 119 390 328 438 442 37 90 5 116
-100 79 -33 -11 -61 -20 -62 -18 -2 1 11 42 28 92 23 64 33 115 36 181 5 88 5
92 -20 117 -33 33 -41 33 -115 -5z"/>
<path d="M945 1576 c-48 -22 -82 -67 -98 -128 l-15 -56 52 -14 c36 -11 63 -12
91 -6 106 24 167 137 105 193 -25 23 -97 29 -135 11z"/>
</g>
</svg>
