<?xml version="1.0" standalone="no"?>
<!DOCTYPE svg PUBLIC "-//W3C//DTD SVG 20010904//EN"
 "http://www.w3.org/TR/2001/REC-SVG-20010904/DTD/svg10.dtd">
<svg version="1.0" xmlns="http://www.w3.org/2000/svg"
 width="600.000000pt" height="600.000000pt" viewBox="0 0 600.000000 600.000000"
 preserveAspectRatio="xMidYMid meet">
<metadata>
Created by potrace 1.11, written by Peter Selinger 2001-2013
</metadata>
<g transform="translate(0.000000,600.000000) scale(0.100000,-0.100000)"
fill="#000000" stroke="none">
<path d="M5767 5994 c-1 -1 -42 -5 -92 -8 -49 -4 -108 -9 -130 -11 -22 -2 -64
-7 -94 -10 -30 -3 -82 -9 -115 -14 -34 -5 -81 -12 -106 -15 -52 -7 -67 -10
-210 -36 -122 -23 -129 -25 -195 -40 -27 -6 -61 -14 -75 -16 -14 -3 -43 -10
-65 -16 -22 -6 -44 -11 -50 -12 -65 -15 -308 -87 -445 -133 -497 -166 -986
-418 -1387 -714 -51 -38 -103 -78 -116 -88 -146 -122 -226 -190 -248 -211 -14
-14 -71 -69 -125 -123 l-100 -97 -69 -5 c-39 -2 -133 -6 -210 -10 -77 -3 -180
-8 -230 -10 -49 -2 -153 -7 -230 -10 -270 -11 -350 -16 -369 -22 -20 -6 -55
-41 -56 -56 0 -4 -23 -55 -50 -113 -28 -58 -50 -109 -50 -113 0 -5 -6 -21 -14
-37 -8 -16 -21 -45 -29 -64 -9 -19 -26 -60 -40 -90 -13 -30 -88 -206 -166
-390 -78 -184 -148 -348 -156 -365 -60 -135 -105 -250 -105 -268 1 -40 26 -60
72 -60 39 0 128 7 218 18 19 2 64 7 100 10 36 4 81 8 100 10 19 2 67 7 105 10
39 4 80 8 92 10 24 4 178 19 202 20 49 1 -24 -59 -148 -124 -14 -7 -82 -49
-151 -93 -69 -43 -134 -84 -145 -91 -257 -159 -580 -407 -677 -520 -59 -68
-163 -202 -190 -245 -25 -38 -23 -85 5 -117 l23 -27 288 -9 c249 -7 291 -11
307 -25 11 -10 19 -25 19 -36 0 -11 -119 -137 -292 -311 -315 -314 -352 -363
-365 -469 -5 -45 -4 -48 23 -58 35 -14 106 -9 199 14 127 31 179 48 235 77
175 90 404 116 425 49 5 -17 -70 -210 -111 -282 -8 -16 -22 -54 -30 -85 -8
-32 -21 -64 -27 -73 -7 -8 -26 -55 -41 -105 -16 -49 -32 -94 -36 -100 -16 -21
-41 -164 -38 -220 l3 -60 55 0 c147 1 401 151 859 506 128 100 235 178 238
176 3 -3 -6 -21 -20 -39 -44 -59 -67 -140 -67 -235 0 -80 3 -91 42 -170 23
-47 46 -87 53 -89 22 -9 132 56 195 115 36 34 67 61 71 61 10 0 59 56 59 67 0
6 11 18 24 27 13 8 46 47 73 86 26 38 65 93 85 122 20 29 37 56 37 59 1 11 80
126 96 139 8 7 40 18 70 25 l55 13 -1 -56 c-2 -47 2 -59 21 -74 35 -28 39 -27
270 79 36 17 88 41 115 53 28 12 75 34 105 48 30 14 132 60 225 102 94 43 202
92 240 110 39 17 88 40 110 50 55 26 274 129 367 174 80 39 89 50 94 116 2 32
13 300 19 465 4 110 16 453 20 530 l3 70 83 75 c97 87 378 365 465 460 107
118 246 286 335 405 24 33 48 64 52 70 45 53 247 360 312 473 89 153 227 422
265 517 8 19 17 40 57 135 111 257 235 673 267 895 4 22 11 65 16 95 10 56 16
104 26 222 5 62 4 69 -19 92 -23 23 -31 25 -117 23 -50 -1 -92 -3 -93 -3z"/>
</g>
</svg>
